<svg width="20" height="20" viewBox="0 0 20 20" fill="none" xmlns="http://www.w3.org/2000/svg">
<path fill-rule="evenodd" clip-rule="evenodd" d="M6 7.5V5C6 2.79086 7.79086 1 10 1C12.2091 1 14 2.79086 14 5V7.5H17.0003C18.3093 7.5 19.2649 8.73819 18.934 10.0055L16.9761 17.5055C16.7463 18.3858 15.9516 19 15.0424 19H4.95764C4.0484 19 3.25374 18.3859 3.02392 17.5055L1.06595 10.0055C0.735102 8.73819 1.69071 7.5 2.99967 7.5H6ZM8 5C8 3.89543 8.89543 3 10 3C11.1046 3 12 3.89543 12 5V7.5H8V5ZM4.95764 17L2.99967 9.5H17.0003L15.0424 17L4.95764 17Z" fill="#1E2530"/>
</svg>
